<?xml version="1.0" encoding="UTF-8"?>
<svg xmlns="http://www.w3.org/2000/svg" xmlns:xlink="http://www.w3.org/1999/xlink" width="20pt" height="20pt" viewBox="0 0 20 20" version="1.1">
<g id="surface1">
<path style=" stroke:none;fill-rule:nonzero;fill:rgb(0%,0%,0%);fill-opacity:1;" d="M 9.242188 1.804688 C 8.488281 2.089844 7.972656 2.570312 7.6875 3.246094 C 7.5 3.699219 7.5 9.5 7.695312 10.054688 C 7.882812 10.597656 8.28125 11.050781 8.824219 11.351562 C 9.234375 11.574219 9.386719 11.609375 10.007812 11.609375 C 10.632812 11.609375 10.78125 11.574219 11.199219 11.34375 C 11.699219 11.066406 12.144531 10.558594 12.339844 10.027344 C 12.410156 9.832031 12.445312 8.78125 12.445312 6.644531 C 12.457031 3.273438 12.457031 3.246094 11.929688 2.589844 C 11.359375 1.878906 10.070312 1.496094 9.242188 1.804688 Z M 9.242188 1.804688 "/>
<path style=" stroke:none;fill-rule:nonzero;fill:rgb(0%,0%,0%);fill-opacity:1;" d="M 4.179688 9.457031 C 4.179688 9.972656 4.519531 11.101562 4.867188 11.761719 C 5.277344 12.542969 6.226562 13.523438 7.027344 13.996094 C 7.347656 14.179688 7.953125 14.441406 8.390625 14.574219 L 9.164062 14.8125 L 9.164062 17.527344 L 10.855469 17.527344 L 10.855469 14.8125 L 11.636719 14.574219 C 13.664062 13.949219 15.160156 12.421875 15.660156 10.445312 C 15.757812 10.0625 15.835938 9.625 15.835938 9.457031 L 15.835938 9.164062 L 14.414062 9.164062 L 14.414062 9.511719 C 14.414062 9.957031 14.144531 10.828125 13.851562 11.324219 C 13.71875 11.539062 13.378906 11.941406 13.078125 12.214844 C 11.324219 13.84375 8.691406 13.84375 6.941406 12.214844 C 6.636719 11.941406 6.300781 11.539062 6.164062 11.324219 C 5.871094 10.828125 5.605469 9.957031 5.605469 9.511719 L 5.605469 9.164062 L 4.179688 9.164062 Z M 4.179688 9.457031 "/>
</g>
</svg>
