<?xml version="1.0" encoding="UTF-8"?>
<svg width="80px" height="80px" viewBox="0 0 80 80" version="1.1" xmlns="http://www.w3.org/2000/svg" xmlns:xlink="http://www.w3.org/1999/xlink">
    <title>Group</title>
    <g id="Page-1" stroke="none" stroke-width="1" fill="none" fill-rule="evenodd">
        <g id="Artboard" transform="translate(-130.000000, -100.000000)">
            <g id="Group" transform="translate(130.000000, 100.000000)">
                <circle id="Oval" fill="#50B9EE" cx="40" cy="40" r="40"></circle>
                <g id="person_FILL0_wght400_GRAD0_opsz48" transform="translate(16.000000, 17.000000)" fill="#FFFFFF" fill-rule="nonzero">
                    <path d="M23.5,22.2222222 C20.26875,22.2222222 17.625,21.1851852 15.56875,19.1111111 C13.5125,17.037037 12.484375,14.3703704 12.484375,11.1111111 C12.484375,7.85185185 13.5125,5.18518519 15.56875,3.11111111 C17.625,1.03703704 20.26875,0 23.5,0 C26.73125,0 29.375,1.03703704 31.43125,3.11111111 C33.4875,5.18518519 34.515625,7.85185185 34.515625,11.1111111 C34.515625,14.3703704 33.4875,17.037037 31.43125,19.1111111 C29.375,21.1851852 26.73125,22.2222222 23.5,22.2222222 L23.5,22.2222222 Z M0,46 L0,39.037037 C0,37.1604938 0.465104167,35.5555556 1.3953125,34.2222222 C2.32552083,32.8888889 3.525,31.8765432 4.99375,31.1851852 C8.27395833,29.7037037 11.4195313,28.5925926 14.4304687,27.8518519 C17.4414062,27.1111111 20.4645833,26.7407407 23.5,26.7407407 C26.5354167,26.7407407 29.5463542,27.1234568 32.5328125,27.8888889 C35.5192708,28.654321 38.6526042,29.7530864 41.9328125,31.1851852 C43.4505208,31.8765432 44.6744792,32.8888889 45.6046875,34.2222222 C46.5348958,35.5555556 47,37.1604938 47,39.037037 L47,46 L0,46 Z M4.40625,41.5555556 L42.59375,41.5555556 L42.59375,39.037037 C42.59375,38.2469136 42.3611979,37.4938272 41.8960937,36.7777778 C41.4309896,36.0617284 40.8557292,35.5308642 40.1703125,35.1851852 C37.0369792,33.654321 34.1729167,32.6049383 31.578125,32.037037 C28.9833333,31.4691358 26.290625,31.1851852 23.5,31.1851852 C20.709375,31.1851852 17.9921875,31.4691358 15.3484375,32.037037 C12.7046875,32.6049383 9.840625,33.654321 6.75625,35.1851852 C6.07083333,35.5308642 5.5078125,36.0617284 5.0671875,36.7777778 C4.6265625,37.4938272 4.40625,38.2469136 4.40625,39.037037 L4.40625,41.5555556 Z M23.5,17.7777778 C25.409375,17.7777778 26.9882812,17.1481481 28.2367188,15.8888889 C29.4851562,14.6296296 30.109375,13.037037 30.109375,11.1111111 C30.109375,9.18518519 29.4851562,7.59259259 28.2367188,6.33333333 C26.9882812,5.07407407 25.409375,4.44444444 23.5,4.44444444 C21.590625,4.44444444 20.0117188,5.07407407 18.7632812,6.33333333 C17.5148438,7.59259259 16.890625,9.18518519 16.890625,11.1111111 C16.890625,13.037037 17.5148438,14.6296296 18.7632812,15.8888889 C20.0117188,17.1481481 21.590625,17.7777778 23.5,17.7777778 Z" id="Shape"></path>
                </g>
            </g>
        </g>
    </g>
</svg>